<svg height="200px" width="200px" version="1.1" id="Capa_1" xmlns="http://www.w3.org/2000/svg" xmlns:xlink="http://www.w3.org/1999/xlink" viewBox="0 0 370.32 370.32" xml:space="preserve" fill="#ffffff" stroke="#ffffff"><g id="SVGRepo_bgCarrier" stroke-width="0"></g><g id="SVGRepo_tracerCarrier" stroke-linecap="round" stroke-linejoin="round"></g><g id="SVGRepo_iconCarrier"> <g> <path style="fill:#ffff;" d="M320.816,63.219L261.94,4.339C259.156,1.561,255.39,0,251.457,0H74.271 C58.219,0,45.16,13.06,45.16,29.112v312.095c0,16.053,13.059,29.113,29.111,29.113h221.777c16.052,0,29.111-13.06,29.111-29.113 V73.703C325.16,69.769,323.6,65.998,320.816,63.219z M293.547,337.907H76.773V32.414h154.088v43.577 c0,10.554,8.554,19.106,19.105,19.106h43.58V337.907z"></path> <path style="fill:#ffff;" d="M103.827,149.16c0,8.284,6.716,15,15,15h132.667c8.284,0,15-6.716,15-15s-6.716-15-15-15H118.827 C110.542,134.16,103.827,140.876,103.827,149.16z"></path> <path style="fill:#ffff;" d="M251.494,224.16H118.827c-8.284,0-15,6.716-15,15s6.716,15,15,15h132.667c8.284,0,15-6.716,15-15 S259.778,224.16,251.494,224.16z"></path> </g> </g></svg>